<?xml version="1.0" encoding="utf-8"?>
<!-- Generator: Adobe Illustrator 20.1.0, SVG Export Plug-In . SVG Version: 6.00 Build 0)  -->
<svg version="1.1" id="YouTube_Logo" xmlns="http://www.w3.org/2000/svg" xmlns:xlink="http://www.w3.org/1999/xlink" x="0px"
	 y="0px" viewBox="0 0 525 210" enable-background="new 0 0 525 210" xml:space="preserve">
<path d="M2.5,37.8h20.9l14.3,53.7L51,37.8h21.1l-24.2,79.9v54.5H27.2v-54.5L2.5,37.8z M98.1,72.2c-16.2,0-27,10.7-27,26.6v48.6
	c0,17.5,9.1,26.6,27,26.6c14.8,0,26.5-9.9,26.5-26.6V98.9C124.6,83.3,113.1,72.2,98.1,72.2z M105.8,146.6c0,5.4-2.8,9.4-7.7,9.4
	c-5.1,0-8-4.2-8-9.4v-46.1c0-5.4,2.5-9.4,7.7-9.4c5.7,0,8.1,3.9,8.1,9.4C105.8,100.5,105.8,146.6,105.8,146.6z M174.5,73.1v75.2
	c-2.2,2.8-7.3,7.4-10.8,7.4c-3.9,0-4.9-2.7-4.9-6.7v-76h-18.4v82.8c0,9.8,3,17.7,12.9,17.7c5.6,0,13.3-2.9,21.3-12.4v10.9h18.4V73.1
	H174.5z M471.5,86.5c-7,0-8.5,4.9-8.5,12v10.4h16.8V98.4C479.8,91.5,478.3,86.5,471.5,86.5z M397.6,87.1c-1.3,0.7-2.6,1.7-3.9,3.1
	v63.7c1.6,1.7,3,2.9,4.5,3.6c3.1,1.6,7.6,1.7,9.7-1.1c1.1-1.4,1.6-3.8,1.6-7.1V96.6c0-3.5-0.7-6.1-2-7.9
	C405.2,85.7,400.9,85.4,397.6,87.1z M473.4,5.5c-40.9-2.8-173.8-2.8-214.7,0c-44.2,3-49.4,29.7-49.7,100c0.3,70.2,5.5,97,49.7,100
	c40.8,2.8,173.8,2.8,214.7,0c44.2-3,49.4-29.7,49.7-100C522.8,35.3,517.7,8.5,473.4,5.5z M279.8,173.3h-21.4V54.9h-22.1V34.8H302
	v20.1h-22.1L279.8,173.3L279.8,173.3z M356,173.3h-19v-11.3c-3.5,4.2-7.1,7.3-10.9,9.5c-10.2,5.9-24.3,5.7-24.3-15V71.1h19v78.4
	c0,4.1,1,6.9,5.1,6.9c3.7,0,8.9-4.8,11.2-7.6V71.1h19L356,173.3L356,173.3z M429.1,152.2c0,12.6-4.7,22.5-17.4,22.5
	c-7,0-12.8-2.5-18-9.2v7.9h-19.2V34.8h19.2v44.6c4.3-5.2,10.1-9.6,16.9-9.6c13.9,0,18.5,11.8,18.5,25.6L429.1,152.2L429.1,152.2z
	 M499.3,124.6H463v19.3c0,7.7,0.7,14.3,8.3,14.3c8,0,8.5-5.4,8.5-14.3v-7.1h19.6v7.7c0,19.7-8.5,31.6-28.5,31.6
	c-18.1,0-27.4-13.2-27.4-31.6V98.6c0-17.7,11.7-30.1,28.9-30.1c18.2,0,27,11.6,27,30.1L499.3,124.6L499.3,124.6z"/>
</svg>
